<?xml version="1.0" encoding="UTF-8"?><svg xmlns="http://www.w3.org/2000/svg" width="1262" height="620" viewBox="0 0 1262 620"><rect width="1262" height="620" fill="#FFFFFF"/><text x="631" y="30" text-anchor="middle" font-family="Segoe UI, Calibri, Arial, sans-serif" font-size="14" font-weight="600" fill="#33332E">Figure 7. Project Gantt chart — proposal plan against version control history</text><text x="16" y="74" font-family="Segoe UI, Calibri, Arial, sans-serif" font-size="12" font-weight="600" fill="#4A4A45">Task</text><text x="380" y="74" font-family="Segoe UI, Calibri, Arial, sans-serif" font-size="12" font-weight="600" fill="#4A4A45">Owner</text><path d="M468,56 V546" stroke="#DFDFDA" stroke-width="1"/><text x="516" y="74" text-anchor="middle" font-family="Segoe UI, Calibri, Arial, sans-serif" font-size="11" fill="#6B6B66">06.07</text><path d="M564,56 V546" stroke="#DFDFDA" stroke-width="1"/><text x="612" y="74" text-anchor="middle" font-family="Segoe UI, Calibri, Arial, sans-serif" font-size="11" fill="#6B6B66">13.07</text><path d="M660,56 V546" stroke="#DFDFDA" stroke-width="1"/><text x="708" y="74" text-anchor="middle" font-family="Segoe UI, Calibri, Arial, sans-serif" font-size="11" fill="#6B6B66">20.07</text><path d="M756,56 V546" stroke="#DFDFDA" stroke-width="1"/><text x="804" y="74" text-anchor="middle" font-family="Segoe UI, Calibri, Arial, sans-serif" font-size="11" fill="#6B6B66">27.07</text><path d="M852,56 V546" stroke="#DFDFDA" stroke-width="1"/><text x="900" y="74" text-anchor="middle" font-family="Segoe UI, Calibri, Arial, sans-serif" font-size="11" fill="#6B6B66">03.08</text><path d="M948,56 V546" stroke="#DFDFDA" stroke-width="1"/><text x="996" y="74" text-anchor="middle" font-family="Segoe UI, Calibri, Arial, sans-serif" font-size="11" fill="#6B6B66">10.08</text><path d="M1044,56 V546" stroke="#DFDFDA" stroke-width="1"/><text x="1092" y="74" text-anchor="middle" font-family="Segoe UI, Calibri, Arial, sans-serif" font-size="11" fill="#6B6B66">17.08</text><path d="M1140,56 V546" stroke="#DFDFDA" stroke-width="1"/><text x="1188" y="74" text-anchor="middle" font-family="Segoe UI, Calibri, Arial, sans-serif" font-size="11" fill="#6B6B66">24.08</text><path d="M1236,56 V546" stroke="#DFDFDA" stroke-width="1"/><rect x="10" y="86" width="1242" height="46" fill="#FAFAF8"/><text x="16" y="114" font-family="Segoe UI, Calibri, Arial, sans-serif" font-size="11.5" fill="#33332E">1. Problem definition and research question</text><text x="380" y="114" font-family="Segoe UI, Calibri, Arial, sans-serif" font-size="11" fill="#6B6B66">both</text><rect x="509" y="94" width="69" height="13" rx="3" fill="#C9D9EC" stroke="#4C7DAB" stroke-width="1"/><rect x="509" y="111" width="69" height="13" rx="3" fill="#2C5D8F" stroke="#1B3E60" stroke-width="1"/><text x="586" y="122" font-family="Segoe UI, Calibri, Arial, sans-serif" font-size="10" font-style="italic" fill="#8A8A84">before the repository existed</text><text x="16" y="160" font-family="Segoe UI, Calibri, Arial, sans-serif" font-size="11.5" fill="#33332E">2. Literature review and search strategy</text><text x="380" y="160" font-family="Segoe UI, Calibri, Arial, sans-serif" font-size="11" fill="#6B6B66">both</text><rect x="591" y="140" width="110" height="13" rx="3" fill="#C9D9EC" stroke="#4C7DAB" stroke-width="1"/><rect x="591" y="157" width="96" height="13" rx="3" fill="#2C5D8F" stroke="#1B3E60" stroke-width="1"/><text x="695" y="168" font-family="Segoe UI, Calibri, Arial, sans-serif" font-size="10" font-style="italic" fill="#8A8A84">before the repository existed</text><rect x="10" y="178" width="1242" height="46" fill="#FAFAF8"/><text x="16" y="206" font-family="Segoe UI, Calibri, Arial, sans-serif" font-size="11.5" fill="#33332E">3. Product dataset and attribute schema</text><text x="380" y="206" font-family="Segoe UI, Calibri, Arial, sans-serif" font-size="11" fill="#6B6B66">A. R. Kal</text><rect x="660" y="186" width="110" height="13" rx="3" fill="#C9D9EC" stroke="#4C7DAB" stroke-width="1"/><rect x="701" y="203" width="41" height="13" rx="3" fill="#2C5D8F" stroke="#1B3E60" stroke-width="1"/><text x="16" y="252" font-family="Segoe UI, Calibri, Arial, sans-serif" font-size="11.5" fill="#33332E">4. Attribute normalization layer</text><text x="380" y="252" font-family="Segoe UI, Calibri, Arial, sans-serif" font-size="11" fill="#6B6B66">A. R. Kal</text><rect x="756" y="232" width="110" height="13" rx="3" fill="#C9D9EC" stroke="#4C7DAB" stroke-width="1"/><rect x="701" y="249" width="41" height="13" rx="3" fill="#2C5D8F" stroke="#1B3E60" stroke-width="1"/><rect x="10" y="270" width="1242" height="46" fill="#FAFAF8"/><text x="16" y="298" font-family="Segoe UI, Calibri, Arial, sans-serif" font-size="11.5" fill="#33332E">5. Rule-based evaluation and quality gate</text><text x="380" y="298" font-family="Segoe UI, Calibri, Arial, sans-serif" font-size="11" fill="#6B6B66">A. R. Kal</text><rect x="852" y="278" width="96" height="13" rx="3" fill="#C9D9EC" stroke="#4C7DAB" stroke-width="1"/><rect x="701" y="295" width="69" height="13" rx="3" fill="#2C5D8F" stroke="#1B3E60" stroke-width="1"/><text x="16" y="344" font-family="Segoe UI, Calibri, Arial, sans-serif" font-size="11.5" fill="#33332E">6. Language model modules (keyword, judge)</text><text x="380" y="344" font-family="Segoe UI, Calibri, Arial, sans-serif" font-size="11" fill="#6B6B66">A. Bulut</text><rect x="921" y="324" width="82" height="13" rx="3" fill="#C9D9EC" stroke="#4C7DAB" stroke-width="1"/><rect x="701" y="341" width="69" height="13" rx="3" fill="#2C5D8F" stroke="#1B3E60" stroke-width="1"/><rect x="10" y="362" width="1242" height="46" fill="#FAFAF8"/><text x="16" y="390" font-family="Segoe UI, Calibri, Arial, sans-serif" font-size="11.5" fill="#33332E">7. End-to-end pipeline and test suite</text><text x="380" y="390" font-family="Segoe UI, Calibri, Arial, sans-serif" font-size="11" fill="#6B6B66">both</text><rect x="989" y="370" width="55" height="13" rx="3" fill="#C9D9EC" stroke="#4C7DAB" stroke-width="1"/><rect x="770" y="387" width="123" height="13" rx="3" fill="#2C5D8F" stroke="#1B3E60" stroke-width="1"/><text x="16" y="436" font-family="Segoe UI, Calibri, Arial, sans-serif" font-size="11.5" fill="#33332E">8. Expansion to ten categories (advisor feedback)</text><text x="380" y="436" font-family="Segoe UI, Calibri, Arial, sans-serif" font-size="11" fill="#6B6B66">both</text><rect x="1058" y="433" width="14" height="13" rx="3" fill="#7E68C4" stroke="#4A3A80" stroke-width="1"/><rect x="10" y="454" width="1242" height="46" fill="#FAFAF8"/><text x="16" y="482" font-family="Segoe UI, Calibri, Arial, sans-serif" font-size="11.5" fill="#33332E">9. Error analysis: prompt–criterion alignment</text><text x="380" y="482" font-family="Segoe UI, Calibri, Arial, sans-serif" font-size="11" fill="#6B6B66">A. R. Kal</text><rect x="1099" y="479" width="6" height="13" rx="3" fill="#7E68C4" stroke="#4A3A80" stroke-width="1"/><text x="16" y="528" font-family="Segoe UI, Calibri, Arial, sans-serif" font-size="11.5" fill="#33332E">10. Report, figures and presentation</text><text x="380" y="528" font-family="Segoe UI, Calibri, Arial, sans-serif" font-size="11" fill="#6B6B66">A. R. Kal</text><rect x="1030" y="508" width="55" height="13" rx="3" fill="#C9D9EC" stroke="#4C7DAB" stroke-width="1"/><rect x="1099" y="525" width="27" height="13" rx="3" fill="#2C5D8F" stroke="#1B3E60" stroke-width="1"/><rect x="16" y="570" width="26" height="12" rx="3" fill="#C9D9EC" stroke="#4C7DAB" stroke-width="1"/><text x="50" y="580" font-family="Segoe UI, Calibri, Arial, sans-serif" font-size="11" fill="#4A4A45">planned (proposal, 11.07.2026)</text><rect x="316" y="570" width="26" height="12" rx="3" fill="#2C5D8F" stroke="#1B3E60" stroke-width="1"/><text x="350" y="580" font-family="Segoe UI, Calibri, Arial, sans-serif" font-size="11" fill="#4A4A45">actual (commit history)</text><rect x="616" y="570" width="26" height="12" rx="3" fill="#7E68C4" stroke="#4A3A80" stroke-width="1"/><text x="650" y="580" font-family="Segoe UI, Calibri, Arial, sans-serif" font-size="11" fill="#4A4A45">not in the proposal</text></svg>