<?xml version="1.0" encoding="UTF-8"?><svg xmlns="http://www.w3.org/2000/svg" width="1020" height="1484" viewBox="0 0 1020 1484"><defs><marker id="head" markerWidth="9" markerHeight="7" refX="8.5" refY="3.5" orient="auto"><polygon points="0 0, 9 3.5, 0 7" fill="#5A5A55"/></marker></defs><rect width="1020" height="1484" fill="#FFFFFF"/><rect x="16" y="0" width="988" height="490" rx="10" fill="#FFFFFF" stroke="#B9B9B4" stroke-width="1.5"/><rect x="16" y="0" width="988" height="34" rx="10" fill="#4A4A45"/><rect x="16" y="24" width="988" height="10" fill="#4A4A45"/><text x="510" y="23" text-anchor="middle" font-family="Segoe UI, Calibri, Arial, sans-serif" font-size="15" font-weight="600" fill="#FFFFFF" letter-spacing="1.4">DATA LAYER</text><rect x="40" y="46" width="240" height="52" rx="6" fill="#F2F2F0" stroke="#7A7A72" stroke-width="1.5"/><text x="160" y="70" text-anchor="middle" font-family="Segoe UI, Calibri, Arial, sans-serif" font-size="12.5" fill="#33332E">product_categories.csv</text><text x="160" y="84" text-anchor="middle" font-family="Segoe UI, Calibri, Arial, sans-serif" font-size="11" fill="#33332E">10 category groups</text><rect x="320" y="46" width="300" height="52" rx="6" fill="#DCE9F7" stroke="#2C5D8F" stroke-width="1.5"/><text x="470" y="77" text-anchor="middle" font-family="Consolas, Courier New, monospace" font-size="12.5" fill="#123A5E">category_taxonomy.py</text><rect x="40" y="120" width="240" height="52" rx="6" fill="#FBE6CC" stroke="#B9770E" stroke-width="1.5"/><text x="160" y="144" text-anchor="middle" font-family="Segoe UI, Calibri, Arial, sans-serif" font-size="12.5" fill="#6B4406">Akakçe</text><text x="160" y="158" text-anchor="middle" font-family="Segoe UI, Calibri, Arial, sans-serif" font-size="11" fill="#6B4406">external source</text><rect x="320" y="120" width="300" height="52" rx="6" fill="#DCE9F7" stroke="#2C5D8F" stroke-width="1.5"/><text x="470" y="144" text-anchor="middle" font-family="Consolas, Courier New, monospace" font-size="12.5" fill="#123A5E">product_scraper.py</text><text x="470" y="158" text-anchor="middle" font-family="Segoe UI, Calibri, Arial, sans-serif" font-size="11" fill="#123A5E">BeautifulSoup4 + Selenium</text><rect x="660" y="120" width="320" height="52" rx="6" fill="#F2F2F0" stroke="#7A7A72" stroke-width="1.5"/><text x="820" y="144" text-anchor="middle" font-family="Segoe UI, Calibri, Arial, sans-serif" font-size="12.5" fill="#33332E">candidate_products_multicategory.csv</text><text x="820" y="158" text-anchor="middle" font-family="Segoe UI, Calibri, Arial, sans-serif" font-size="11" fill="#33332E">+ .metadata.json — scraped, 489 products</text><rect x="320" y="194" width="300" height="52" rx="6" fill="#DCE9F7" stroke="#2C5D8F" stroke-width="1.5"/><text x="470" y="218" text-anchor="middle" font-family="Consolas, Courier New, monospace" font-size="12.5" fill="#123A5E">product_catalog.py</text><text x="470" y="232" text-anchor="middle" font-family="Segoe UI, Calibri, Arial, sans-serif" font-size="11" fill="#123A5E">offline fallback — reads the same taxonomy</text><rect x="660" y="194" width="320" height="52" rx="6" fill="#F2F2F0" stroke="#7A7A72" stroke-width="1.5"/><text x="820" y="218" text-anchor="middle" font-family="Segoe UI, Calibri, Arial, sans-serif" font-size="12.5" fill="#33332E">...synthetic.csv</text><text x="820" y="232" text-anchor="middle" font-family="Segoe UI, Calibri, Arial, sans-serif" font-size="11" fill="#33332E">stamped synthetic</text><rect x="320" y="268" width="300" height="52" rx="6" fill="#DCE9F7" stroke="#2C5D8F" stroke-width="1.5"/><text x="470" y="292" text-anchor="middle" font-family="Consolas, Courier New, monospace" font-size="12.5" fill="#123A5E">data_processor.py</text><text x="470" y="306" text-anchor="middle" font-family="Segoe UI, Calibri, Arial, sans-serif" font-size="11" fill="#123A5E">schema + cleaning + row validation</text><rect x="660" y="268" width="320" height="52" rx="6" fill="#F2F2F0" stroke="#7A7A72" stroke-width="1.5"/><text x="820" y="292" text-anchor="middle" font-family="Consolas, Courier New, monospace" font-size="12.5" fill="#33332E">processed_products_multicategory.json / .csv</text><text x="820" y="306" text-anchor="middle" font-family="Segoe UI, Calibri, Arial, sans-serif" font-size="11" fill="#33332E">489 records  +  validation_issues_...csv</text><rect x="320" y="342" width="300" height="52" rx="6" fill="#DCE9F7" stroke="#2C5D8F" stroke-width="1.5"/><text x="470" y="366" text-anchor="middle" font-family="Consolas, Courier New, monospace" font-size="12.5" fill="#123A5E">quality_check.py</text><text x="470" y="380" text-anchor="middle" font-family="Segoe UI, Calibri, Arial, sans-serif" font-size="11" fill="#123A5E">dataset-level gate</text><rect x="320" y="416" width="300" height="52" rx="6" fill="#DCE9F7" stroke="#2C5D8F" stroke-width="1.5"/><text x="470" y="447" text-anchor="middle" font-family="Consolas, Courier New, monospace" font-size="12.5" fill="#123A5E">keyword_generator.py</text><rect x="660" y="416" width="320" height="52" rx="6" fill="#F2F2F0" stroke="#7A7A72" stroke-width="1.5"/><text x="820" y="440" text-anchor="middle" font-family="Segoe UI, Calibri, Arial, sans-serif" font-size="12.5" fill="#33332E">generated_keywords_multicategory.json</text><text x="820" y="454" text-anchor="middle" font-family="Segoe UI, Calibri, Arial, sans-serif" font-size="11" fill="#33332E">one keyword per product</text><path d="M280,72 L320,72" fill="none" stroke="#5A5A55" stroke-width="1.6" marker-end="url(#head)"/><path d="M470,98 L470,120" fill="none" stroke="#5A5A55" stroke-width="1.6" marker-end="url(#head)"/><path d="M280,146 L320,146" fill="none" stroke="#5A5A55" stroke-width="1.6" marker-end="url(#head)"/><path d="M620,146 L660,146" fill="none" stroke="#5A5A55" stroke-width="1.6" marker-end="url(#head)"/><path d="M620,220 L660,220" fill="none" stroke="#5A5A55" stroke-width="1.6" marker-end="url(#head)"/><path d="M620,294 L660,294" fill="none" stroke="#5A5A55" stroke-width="1.6" marker-end="url(#head)"/><path d="M620,442 L660,442" fill="none" stroke="#5A5A55" stroke-width="1.6" marker-end="url(#head)"/><path d="M820,172 L820,254 L470,254 L470,268" fill="none" stroke="#5A5A55" stroke-width="1.6" marker-end="url(#head)"/><path d="M820,320 L820,368 L620,368" fill="none" stroke="#5A5A55" stroke-width="1.6" marker-end="url(#head)"/><text x="632" y="387" text-anchor="start" font-family="Segoe UI, Calibri, Arial, sans-serif" font-size="11" font-style="italic" fill="#6B6B66">PASSED / FAILED report — writes no file, does not stop the flow</text><path d="M700,320 L700,402 L470,402 L470,416" fill="none" stroke="#5A5A55" stroke-width="1.6" marker-end="url(#head)"/><rect x="16" y="516" width="988" height="416" rx="10" fill="#FFFFFF" stroke="#B9B9B4" stroke-width="1.5"/><rect x="16" y="516" width="988" height="34" rx="10" fill="#4A4A45"/><rect x="16" y="540" width="988" height="10" fill="#4A4A45"/><text x="510" y="539" text-anchor="middle" font-family="Segoe UI, Calibri, Arial, sans-serif" font-size="15" font-weight="600" fill="#FFFFFF" letter-spacing="1.4">EVALUATION LAYER</text><rect x="40" y="562" width="460" height="52" rx="6" fill="#DCE9F7" stroke="#2C5D8F" stroke-width="1.5"/><text x="270" y="586" text-anchor="middle" font-family="Consolas, Courier New, monospace" font-size="12.5" fill="#123A5E">run_evaluation_batch.py</text><text x="270" y="600" text-anchor="middle" font-family="Segoe UI, Calibri, Arial, sans-serif" font-size="11" fill="#123A5E">produces the 80 runs reported here</text><rect x="520" y="562" width="460" height="52" rx="6" fill="#DCE9F7" stroke="#2C5D8F" stroke-width="1.5"/><text x="750" y="586" text-anchor="middle" font-family="Consolas, Courier New, monospace" font-size="12.5" fill="#123A5E">langgraph_flow.py</text><text x="750" y="600" text-anchor="middle" font-family="Segoe UI, Calibri, Arial, sans-serif" font-size="11" fill="#123A5E">same four methods, LangGraph graph (Figure 1)</text><rect x="40" y="636" width="226" height="40" rx="6" fill="#E7E1F5" stroke="#5B47A0" stroke-width="1.5"/><text x="153" y="661" text-anchor="middle" font-family="Segoe UI, Calibri, Arial, sans-serif" font-size="12.5" fill="#2E2258">Selenium + Rule-Based</text><rect x="40" y="684" width="226" height="38" rx="6" fill="#DCE9F7" stroke="#2C5D8F" stroke-width="1.5"/><text x="153" y="708" text-anchor="middle" font-family="Consolas, Courier New, monospace" font-size="12.5" fill="#123A5E">rule_based_evaluator.py</text><rect x="40" y="732" width="226" height="44" rx="6" fill="#F2F2F0" stroke="#7A7A72" stroke-width="1.5"/><text x="153" y="752" text-anchor="middle" font-family="Segoe UI, Calibri, Arial, sans-serif" font-size="12.5" fill="#33332E">Bing (Selenium) + domain table</text><text x="153" y="766" text-anchor="middle" font-family="Segoe UI, Calibri, Arial, sans-serif" font-size="11" fill="#33332E">threshold 0.60 — no model</text><rect x="278" y="636" width="226" height="40" rx="6" fill="#E7E1F5" stroke="#5B47A0" stroke-width="1.5"/><text x="391" y="661" text-anchor="middle" font-family="Segoe UI, Calibri, Arial, sans-serif" font-size="12.5" fill="#2E2258">Selenium + NanoLLM</text><rect x="278" y="684" width="226" height="38" rx="6" fill="#DCE9F7" stroke="#2C5D8F" stroke-width="1.5"/><text x="391" y="708" text-anchor="middle" font-family="Consolas, Courier New, monospace" font-size="12.5" fill="#123A5E">nano_llm_evaluator.py</text><rect x="278" y="732" width="226" height="44" rx="6" fill="#FBE6CC" stroke="#B9770E" stroke-width="1.5"/><text x="391" y="759" text-anchor="middle" font-family="Segoe UI, Calibri, Arial, sans-serif" font-size="12.5" fill="#6B4406">Bing (Selenium) + OpenRouter</text><rect x="516" y="636" width="226" height="40" rx="6" fill="#E7E1F5" stroke="#5B47A0" stroke-width="1.5"/><text x="629" y="661" text-anchor="middle" font-family="Segoe UI, Calibri, Arial, sans-serif" font-size="12.5" fill="#2E2258">Tavily + NanoLLM</text><rect x="516" y="684" width="226" height="38" rx="6" fill="#DCE9F7" stroke="#2C5D8F" stroke-width="1.5"/><text x="629" y="708" text-anchor="middle" font-family="Consolas, Courier New, monospace" font-size="12.5" fill="#123A5E">tavily_client.py</text><rect x="516" y="732" width="226" height="44" rx="6" fill="#FBE6CC" stroke="#B9770E" stroke-width="1.5"/><text x="629" y="759" text-anchor="middle" font-family="Segoe UI, Calibri, Arial, sans-serif" font-size="12.5" fill="#6B4406">Tavily API + OpenRouter</text><rect x="754" y="636" width="226" height="40" rx="6" fill="#E7E1F5" stroke="#5B47A0" stroke-width="1.5"/><text x="867" y="661" text-anchor="middle" font-family="Segoe UI, Calibri, Arial, sans-serif" font-size="12.5" fill="#2E2258">Agentic Search</text><rect x="754" y="684" width="226" height="38" rx="6" fill="#DCE9F7" stroke="#2C5D8F" stroke-width="1.5"/><text x="867" y="708" text-anchor="middle" font-family="Consolas, Courier New, monospace" font-size="12.5" fill="#123A5E">agentic_search.py</text><rect x="754" y="732" width="226" height="44" rx="6" fill="#FBE6CC" stroke="#B9770E" stroke-width="1.5"/><text x="867" y="752" text-anchor="middle" font-family="Segoe UI, Calibri, Arial, sans-serif" font-size="12.5" fill="#6B4406">Bing (Selenium) + OpenRouter</text><text x="867" y="766" text-anchor="middle" font-family="Segoe UI, Calibri, Arial, sans-serif" font-size="11" fill="#6B4406">planner + evaluator</text><rect x="40" y="806" width="940" height="52" rx="6" fill="#F2F2F0" stroke="#7A7A72" stroke-width="1.5"/><text x="510" y="830" text-anchor="middle" font-family="Consolas, Courier New, monospace" font-size="12.5" fill="#33332E">results_multicategory/&lt;method&gt;/*.json</text><text x="510" y="844" text-anchor="middle" font-family="Segoe UI, Calibri, Arial, sans-serif" font-size="11" fill="#33332E">80 files — 20 products × 4 methods, 399 results</text><rect x="260" y="872" width="500" height="40" rx="6" fill="#DCE9F7" stroke="#2C5D8F" stroke-width="1.5"/><text x="510" y="897" text-anchor="middle" font-family="Segoe UI, Calibri, Arial, sans-serif" font-size="12.5" fill="#123A5E">result_validator.py — shared JSON schema</text><path d="M820,468 L820,515 L750,515 L750,562" fill="none" stroke="#5A5A55" stroke-width="1.6" marker-end="url(#head)"/><path d="M820,468 L820,515 L270,515 L270,562" fill="none" stroke="#5A5A55" stroke-width="1.6" marker-end="url(#head)"/><path d="M270,614 L270,625 L153,625 L153,636" fill="none" stroke="#5A5A55" stroke-width="1.6" marker-end="url(#head)"/><path d="M153,676 L153,684" fill="none" stroke="#5A5A55" stroke-width="1.6" marker-end="url(#head)"/><path d="M153,722 L153,732" fill="none" stroke="#5A5A55" stroke-width="1.6" marker-end="url(#head)"/><path d="M153,776 L153,794 L510,794 L510,806" fill="none" stroke="#5A5A55" stroke-width="1.6" marker-end="url(#head)"/><path d="M270,614 L270,625 L391,625 L391,636" fill="none" stroke="#5A5A55" stroke-width="1.6" marker-end="url(#head)"/><path d="M391,676 L391,684" fill="none" stroke="#5A5A55" stroke-width="1.6" marker-end="url(#head)"/><path d="M391,722 L391,732" fill="none" stroke="#5A5A55" stroke-width="1.6" marker-end="url(#head)"/><path d="M391,776 L391,794 L510,794 L510,806" fill="none" stroke="#5A5A55" stroke-width="1.6" marker-end="url(#head)"/><path d="M270,614 L270,625 L629,625 L629,636" fill="none" stroke="#5A5A55" stroke-width="1.6" marker-end="url(#head)"/><path d="M629,676 L629,684" fill="none" stroke="#5A5A55" stroke-width="1.6" marker-end="url(#head)"/><path d="M629,722 L629,732" fill="none" stroke="#5A5A55" stroke-width="1.6" marker-end="url(#head)"/><path d="M629,776 L629,794 L510,794 L510,806" fill="none" stroke="#5A5A55" stroke-width="1.6" marker-end="url(#head)"/><path d="M270,614 L270,625 L867,625 L867,636" fill="none" stroke="#5A5A55" stroke-width="1.6" marker-end="url(#head)"/><path d="M867,676 L867,684" fill="none" stroke="#5A5A55" stroke-width="1.6" marker-end="url(#head)"/><path d="M867,722 L867,732" fill="none" stroke="#5A5A55" stroke-width="1.6" marker-end="url(#head)"/><path d="M867,776 L867,794 L510,794 L510,806" fill="none" stroke="#5A5A55" stroke-width="1.6" marker-end="url(#head)"/><path d="M510,858 L510,872" fill="none" stroke="#5A5A55" stroke-width="1.6" marker-end="url(#head)"/><rect x="16" y="958" width="988" height="490" rx="10" fill="#FFFFFF" stroke="#B9B9B4" stroke-width="1.5"/><rect x="16" y="958" width="988" height="34" rx="10" fill="#4A4A45"/><rect x="16" y="982" width="988" height="10" fill="#4A4A45"/><text x="510" y="981" text-anchor="middle" font-family="Segoe UI, Calibri, Arial, sans-serif" font-size="15" font-weight="600" fill="#FFFFFF" letter-spacing="1.4">MEASUREMENT AND REPORTING LAYER</text><rect x="320" y="1004" width="300" height="52" rx="6" fill="#DCE9F7" stroke="#2C5D8F" stroke-width="1.5"/><text x="470" y="1028" text-anchor="middle" font-family="Consolas, Courier New, monospace" font-size="12.5" fill="#123A5E">export_label_workbook.py</text><text x="470" y="1042" text-anchor="middle" font-family="Segoe UI, Calibri, Arial, sans-serif" font-size="11" fill="#123A5E">model predictions hidden</text><rect x="660" y="1004" width="320" height="52" rx="6" fill="#F2F2F0" stroke="#7A7A72" stroke-width="1.5"/><text x="820" y="1028" text-anchor="middle" font-family="Segoe UI, Calibri, Arial, sans-serif" font-size="12.5" fill="#33332E">label_review_session1.xlsx — 134 URLs</text><text x="820" y="1042" text-anchor="middle" font-family="Segoe UI, Calibri, Arial, sans-serif" font-size="11" fill="#33332E">label_review_session2.xlsx — 61 URLs</text><rect x="320" y="1078" width="300" height="52" rx="6" fill="#E3F1E4" stroke="#3B7D42" stroke-width="1.5"/><text x="470" y="1102" text-anchor="middle" font-family="Segoe UI, Calibri, Arial, sans-serif" font-size="12.5" fill="#1E4722">Human reviewer</text><text x="470" y="1116" text-anchor="middle" font-family="Segoe UI, Calibri, Arial, sans-serif" font-size="11" fill="#1E4722">193 unique URLs labeled by hand</text><rect x="40" y="1152" width="240" height="52" rx="6" fill="#F2F2F0" stroke="#7A7A72" stroke-width="1.5"/><text x="160" y="1176" text-anchor="middle" font-family="Segoe UI, Calibri, Arial, sans-serif" font-size="12.5" fill="#33332E">multicategory_label_</text><text x="160" y="1190" text-anchor="middle" font-family="Segoe UI, Calibri, Arial, sans-serif" font-size="11" fill="#33332E">adjudications.csv — 5 decisions</text><rect x="320" y="1152" width="300" height="52" rx="6" fill="#DCE9F7" stroke="#2C5D8F" stroke-width="1.5"/><text x="470" y="1183" text-anchor="middle" font-family="Consolas, Courier New, monospace" font-size="12.5" fill="#123A5E">import_label_workbook.py</text><rect x="660" y="1152" width="320" height="52" rx="6" fill="#F2F2F0" stroke="#7A7A72" stroke-width="1.5"/><text x="820" y="1176" text-anchor="middle" font-family="Segoe UI, Calibri, Arial, sans-serif" font-size="12.5" fill="#33332E">multicategory_ground_truth.csv</text><text x="820" y="1190" text-anchor="middle" font-family="Segoe UI, Calibri, Arial, sans-serif" font-size="11" fill="#33332E">193 labels — 140 relevant / 53 irrelevant</text><rect x="320" y="1226" width="300" height="52" rx="6" fill="#DCE9F7" stroke="#2C5D8F" stroke-width="1.5"/><text x="470" y="1257" text-anchor="middle" font-family="Consolas, Courier New, monospace" font-size="12.5" fill="#123A5E">build_manifest.py</text><rect x="660" y="1226" width="320" height="52" rx="6" fill="#F2F2F0" stroke="#7A7A72" stroke-width="1.5"/><text x="820" y="1250" text-anchor="middle" font-family="Segoe UI, Calibri, Arial, sans-serif" font-size="12.5" fill="#33332E">final_evaluation_manifest_</text><text x="820" y="1264" text-anchor="middle" font-family="Segoe UI, Calibri, Arial, sans-serif" font-size="11" fill="#33332E">multicategory.json — 80 files frozen</text><rect x="170" y="1300" width="280" height="52" rx="6" fill="#DCE9F7" stroke="#2C5D8F" stroke-width="1.5"/><text x="310" y="1324" text-anchor="middle" font-family="Consolas, Courier New, monospace" font-size="12.5" fill="#123A5E">final_metrics.py</text><text x="310" y="1338" text-anchor="middle" font-family="Segoe UI, Calibri, Arial, sans-serif" font-size="11" fill="#123A5E">overall metrics</text><rect x="560" y="1300" width="280" height="52" rx="6" fill="#DCE9F7" stroke="#2C5D8F" stroke-width="1.5"/><text x="700" y="1324" text-anchor="middle" font-family="Consolas, Courier New, monospace" font-size="12.5" fill="#123A5E">category_metrics.py</text><text x="700" y="1338" text-anchor="middle" font-family="Segoe UI, Calibri, Arial, sans-serif" font-size="11" fill="#123A5E">per category</text><rect x="320" y="1374" width="300" height="52" rx="6" fill="#DCE9F7" stroke="#2C5D8F" stroke-width="1.5"/><text x="470" y="1405" text-anchor="middle" font-family="Consolas, Courier New, monospace" font-size="12.5" fill="#123A5E">multicategory_report.py</text><rect x="660" y="1374" width="320" height="52" rx="6" fill="#F2F2F0" stroke="#7A7A72" stroke-width="1.5"/><text x="820" y="1405" text-anchor="middle" font-family="Segoe UI, Calibri, Arial, sans-serif" font-size="12.5" fill="#33332E">multicategory_evaluation_report.md</text><path d="M510,912 L510,958 L470,958 L470,1004" fill="none" stroke="#5A5A55" stroke-width="1.6" marker-end="url(#head)"/><path d="M620,1030 L660,1030" fill="none" stroke="#5A5A55" stroke-width="1.6" marker-end="url(#head)"/><path d="M470,1056 L470,1078" fill="none" stroke="#5A5A55" stroke-width="1.6" marker-end="url(#head)"/><path d="M470,1130 L470,1152" fill="none" stroke="#5A5A55" stroke-width="1.6" marker-end="url(#head)"/><path d="M280,1178 L320,1178" fill="none" stroke="#5A5A55" stroke-width="1.6" marker-end="url(#head)"/><path d="M620,1178 L660,1178" fill="none" stroke="#5A5A55" stroke-width="1.6" marker-end="url(#head)"/><path d="M470,1204 L470,1226" fill="none" stroke="#5A5A55" stroke-width="1.6" marker-end="url(#head)"/><path d="M620,1252 L660,1252" fill="none" stroke="#5A5A55" stroke-width="1.6" marker-end="url(#head)"/><path d="M470,1278 L470,1289 L310,1289 L310,1300" fill="none" stroke="#5A5A55" stroke-width="1.6" marker-end="url(#head)"/><path d="M470,1278 L470,1289 L700,1289 L700,1300" fill="none" stroke="#5A5A55" stroke-width="1.6" marker-end="url(#head)"/><path d="M310,1352 L310,1363 L470,1363 L470,1374" fill="none" stroke="#5A5A55" stroke-width="1.6" marker-end="url(#head)"/><path d="M700,1352 L700,1363 L470,1363 L470,1374" fill="none" stroke="#5A5A55" stroke-width="1.6" marker-end="url(#head)"/><path d="M620,1400 L660,1400" fill="none" stroke="#5A5A55" stroke-width="1.6" marker-end="url(#head)"/></svg>