<?xml version="1.0" encoding="UTF-8"?><svg xmlns="http://www.w3.org/2000/svg" width="1262" height="804" viewBox="0 0 1262 804"><rect width="1262" height="804" fill="#FFFFFF"/><text x="631" y="30" text-anchor="middle" font-family="Segoe UI, Calibri, Arial, sans-serif" font-size="14" font-weight="600" fill="#33332E">Figure 7. Project Gantt chart — proposal plan against version control history</text><text x="16" y="74" font-family="Segoe UI, Calibri, Arial, sans-serif" font-size="12" font-weight="600" fill="#4A4A45">Task</text><text x="380" y="74" font-family="Segoe UI, Calibri, Arial, sans-serif" font-size="12" font-weight="600" fill="#4A4A45">Owner</text><path d="M468,56 V546" stroke="#DFDFDA" stroke-width="1"/><text x="516" y="74" text-anchor="middle" font-family="Segoe UI, Calibri, Arial, sans-serif" font-size="11" fill="#6B6B66">06.07</text><path d="M564,56 V546" stroke="#DFDFDA" stroke-width="1"/><text x="612" y="74" text-anchor="middle" font-family="Segoe UI, Calibri, Arial, sans-serif" font-size="11" fill="#6B6B66">13.07</text><path d="M660,56 V546" stroke="#DFDFDA" stroke-width="1"/><text x="708" y="74" text-anchor="middle" font-family="Segoe UI, Calibri, Arial, sans-serif" font-size="11" fill="#6B6B66">20.07</text><path d="M756,56 V546" stroke="#DFDFDA" stroke-width="1"/><text x="804" y="74" text-anchor="middle" font-family="Segoe UI, Calibri, Arial, sans-serif" font-size="11" fill="#6B6B66">27.07</text><path d="M852,56 V546" stroke="#DFDFDA" stroke-width="1"/><text x="900" y="74" text-anchor="middle" font-family="Segoe UI, Calibri, Arial, sans-serif" font-size="11" fill="#6B6B66">03.08</text><path d="M948,56 V546" stroke="#DFDFDA" stroke-width="1"/><text x="996" y="74" text-anchor="middle" font-family="Segoe UI, Calibri, Arial, sans-serif" font-size="11" fill="#6B6B66">10.08</text><path d="M1044,56 V546" stroke="#DFDFDA" stroke-width="1"/><text x="1092" y="74" text-anchor="middle" font-family="Segoe UI, Calibri, Arial, sans-serif" font-size="11" fill="#6B6B66">17.08</text><path d="M1140,56 V546" stroke="#DFDFDA" stroke-width="1"/><text x="1188" y="74" text-anchor="middle" font-family="Segoe UI, Calibri, Arial, sans-serif" font-size="11" fill="#6B6B66">24.08</text><path d="M1236,56 V546" stroke="#DFDFDA" stroke-width="1"/><rect x="10" y="86" width="1242" height="46" fill="#FAFAF8"/><text x="16" y="114" font-family="Segoe UI, Calibri, Arial, sans-serif" font-size="11.5" fill="#33332E">1. Problem definition and research question</text><text x="380" y="114" font-family="Segoe UI, Calibri, Arial, sans-serif" font-size="11" fill="#6B6B66">both</text><rect x="509" y="94" width="69" height="13" rx="3" fill="#C9D9EC" stroke="#4C7DAB" stroke-width="1"/><rect x="509" y="111" width="69" height="13" rx="3" fill="#2C5D8F" stroke="#1B3E60" stroke-width="1"/><text x="586" y="122" font-family="Segoe UI, Calibri, Arial, sans-serif" font-size="10" font-style="italic" fill="#8A8A84">before the repository existed</text><text x="16" y="160" font-family="Segoe UI, Calibri, Arial, sans-serif" font-size="11.5" fill="#33332E">2. Literature review and search strategy</text><text x="380" y="160" font-family="Segoe UI, Calibri, Arial, sans-serif" font-size="11" fill="#6B6B66">both</text><rect x="591" y="140" width="110" height="13" rx="3" fill="#C9D9EC" stroke="#4C7DAB" stroke-width="1"/><rect x="591" y="157" width="96" height="13" rx="3" fill="#2C5D8F" stroke="#1B3E60" stroke-width="1"/><text x="695" y="168" font-family="Segoe UI, Calibri, Arial, sans-serif" font-size="10" font-style="italic" fill="#8A8A84">before the repository existed</text><rect x="10" y="178" width="1242" height="46" fill="#FAFAF8"/><text x="16" y="206" font-family="Segoe UI, Calibri, Arial, sans-serif" font-size="11.5" fill="#33332E">3. Product dataset and attribute schema</text><text x="380" y="206" font-family="Segoe UI, Calibri, Arial, sans-serif" font-size="11" fill="#6B6B66">A. R. Kal</text><rect x="660" y="186" width="110" height="13" rx="3" fill="#C9D9EC" stroke="#4C7DAB" stroke-width="1"/><rect x="701" y="203" width="41" height="13" rx="3" fill="#2C5D8F" stroke="#1B3E60" stroke-width="1"/><text x="16" y="252" font-family="Segoe UI, Calibri, Arial, sans-serif" font-size="11.5" fill="#33332E">4. Attribute normalization layer</text><text x="380" y="252" font-family="Segoe UI, Calibri, Arial, sans-serif" font-size="11" fill="#6B6B66">A. R. Kal</text><rect x="756" y="232" width="110" height="13" rx="3" fill="#C9D9EC" stroke="#4C7DAB" stroke-width="1"/><rect x="701" y="249" width="41" height="13" rx="3" fill="#2C5D8F" stroke="#1B3E60" stroke-width="1"/><rect x="10" y="270" width="1242" height="46" fill="#FAFAF8"/><text x="16" y="298" font-family="Segoe UI, Calibri, Arial, sans-serif" font-size="11.5" fill="#33332E">5. Rule-based evaluation and quality gate</text><text x="380" y="298" font-family="Segoe UI, Calibri, Arial, sans-serif" font-size="11" fill="#6B6B66">A. R. Kal</text><rect x="852" y="278" width="96" height="13" rx="3" fill="#C9D9EC" stroke="#4C7DAB" stroke-width="1"/><rect x="701" y="295" width="69" height="13" rx="3" fill="#2C5D8F" stroke="#1B3E60" stroke-width="1"/><text x="16" y="344" font-family="Segoe UI, Calibri, Arial, sans-serif" font-size="11.5" fill="#33332E">6. Language model modules (keyword, judge)</text><text x="380" y="344" font-family="Segoe UI, Calibri, Arial, sans-serif" font-size="11" fill="#6B6B66">A. Bulut</text><rect x="921" y="324" width="82" height="13" rx="3" fill="#C9D9EC" stroke="#4C7DAB" stroke-width="1"/><rect x="701" y="341" width="69" height="13" rx="3" fill="#2C5D8F" stroke="#1B3E60" stroke-width="1"/><rect x="10" y="362" width="1242" height="46" fill="#FAFAF8"/><text x="16" y="390" font-family="Segoe UI, Calibri, Arial, sans-serif" font-size="11.5" fill="#33332E">7. End-to-end pipeline and test suite</text><text x="380" y="390" font-family="Segoe UI, Calibri, Arial, sans-serif" font-size="11" fill="#6B6B66">both</text><rect x="989" y="370" width="55" height="13" rx="3" fill="#C9D9EC" stroke="#4C7DAB" stroke-width="1"/><rect x="770" y="387" width="123" height="13" rx="3" fill="#2C5D8F" stroke="#1B3E60" stroke-width="1"/><text x="16" y="436" font-family="Segoe UI, Calibri, Arial, sans-serif" font-size="11.5" fill="#33332E">8. Expansion to ten categories (advisor feedback)</text><text x="380" y="436" font-family="Segoe UI, Calibri, Arial, sans-serif" font-size="11" fill="#6B6B66">both</text><rect x="1058" y="433" width="14" height="13" rx="3" fill="#7E68C4" stroke="#4A3A80" stroke-width="1"/><rect x="10" y="454" width="1242" height="46" fill="#FAFAF8"/><text x="16" y="482" font-family="Segoe UI, Calibri, Arial, sans-serif" font-size="11.5" fill="#33332E">9. Error analysis: prompt–criterion alignment</text><text x="380" y="482" font-family="Segoe UI, Calibri, Arial, sans-serif" font-size="11" fill="#6B6B66">A. R. Kal</text><rect x="1099" y="479" width="6" height="13" rx="3" fill="#7E68C4" stroke="#4A3A80" stroke-width="1"/><text x="16" y="528" font-family="Segoe UI, Calibri, Arial, sans-serif" font-size="11.5" fill="#33332E">10. Report, figures and presentation</text><text x="380" y="528" font-family="Segoe UI, Calibri, Arial, sans-serif" font-size="11" fill="#6B6B66">A. R. Kal</text><rect x="1030" y="508" width="55" height="13" rx="3" fill="#C9D9EC" stroke="#4C7DAB" stroke-width="1"/><rect x="1099" y="525" width="27" height="13" rx="3" fill="#2C5D8F" stroke="#1B3E60" stroke-width="1"/><path d="M10,558 H1252" stroke="#DFDFDA" stroke-width="1"/><text x="16" y="584" font-family="Segoe UI, Calibri, Arial, sans-serif" font-size="12" font-weight="600" fill="#4A4A45">Measured output (counted artifacts, not commits)</text><path d="M770,592 L770,599 L770,604" fill="none" stroke="#B08A3E" stroke-width="1"/><circle cx="770" cy="613" r="8.5" fill="#E8B84B" stroke="#B08A3E" stroke-width="1.2"/><text x="770" y="617" text-anchor="middle" font-family="Segoe UI, Calibri, Arial, sans-serif" font-size="10" font-weight="600" fill="#5C4A18">1</text><path d="M811,592 L811,599 L811,604" fill="none" stroke="#B08A3E" stroke-width="1"/><circle cx="811" cy="613" r="8.5" fill="#E8B84B" stroke="#B08A3E" stroke-width="1.2"/><text x="811" y="617" text-anchor="middle" font-family="Segoe UI, Calibri, Arial, sans-serif" font-size="10" font-weight="600" fill="#5C4A18">2</text><path d="M1058,592 L1058,599 L1058,604" fill="none" stroke="#B08A3E" stroke-width="1"/><circle cx="1058" cy="613" r="8.5" fill="#E8B84B" stroke="#B08A3E" stroke-width="1.2"/><text x="1058" y="617" text-anchor="middle" font-family="Segoe UI, Calibri, Arial, sans-serif" font-size="10" font-weight="600" fill="#5C4A18">3</text><path d="M1071,592 L1071,599 L1079,604" fill="none" stroke="#B08A3E" stroke-width="1"/><circle cx="1079" cy="613" r="8.5" fill="#E8B84B" stroke="#B08A3E" stroke-width="1.2"/><text x="1079" y="617" text-anchor="middle" font-family="Segoe UI, Calibri, Arial, sans-serif" font-size="10" font-weight="600" fill="#5C4A18">4</text><path d="M1071,592 L1071,599 L1100,604" fill="none" stroke="#B08A3E" stroke-width="1"/><circle cx="1100" cy="613" r="8.5" fill="#E8B84B" stroke="#B08A3E" stroke-width="1.2"/><text x="1100" y="617" text-anchor="middle" font-family="Segoe UI, Calibri, Arial, sans-serif" font-size="10" font-weight="600" fill="#5C4A18">5</text><path d="M1099,592 L1099,599 L1121,604" fill="none" stroke="#B08A3E" stroke-width="1"/><circle cx="1121" cy="613" r="8.5" fill="#E8B84B" stroke="#B08A3E" stroke-width="1.2"/><text x="1121" y="617" text-anchor="middle" font-family="Segoe UI, Calibri, Arial, sans-serif" font-size="10" font-weight="600" fill="#5C4A18">6</text><path d="M1126,592 L1126,599 L1142,604" fill="none" stroke="#B08A3E" stroke-width="1"/><circle cx="1142" cy="613" r="8.5" fill="#E8B84B" stroke="#B08A3E" stroke-width="1.2"/><text x="1142" y="617" text-anchor="middle" font-family="Segoe UI, Calibri, Arial, sans-serif" font-size="10" font-weight="600" fill="#5C4A18">7</text><text x="16" y="642" font-family="Segoe UI, Calibri, Arial, sans-serif" font-size="10.5" fill="#6B5A2E">1. 28.07 — 40 live runs, 199 results (phones)</text><text x="16" y="657" font-family="Segoe UI, Calibri, Arial, sans-serif" font-size="10.5" fill="#6B5A2E">2. 31.07 — 107 human labels</text><text x="16" y="672" font-family="Segoe UI, Calibri, Arial, sans-serif" font-size="10.5" fill="#6B5A2E">3. 18.08 — 7 scraping sessions, 489 products — no commit this day</text><text x="16" y="687" font-family="Segoe UI, Calibri, Arial, sans-serif" font-size="10.5" fill="#6B5A2E">4. 19.08 — 80 live runs, 399 results</text><text x="636" y="642" font-family="Segoe UI, Calibri, Arial, sans-serif" font-size="10.5" fill="#6B5A2E">5. 19.08 — 193 URLs labeled by hand, 2 sessions</text><text x="636" y="657" font-family="Segoe UI, Calibri, Arial, sans-serif" font-size="10.5" fill="#6B5A2E">6. 21.08 — 60 files re-judged on one endpoint</text><text x="636" y="672" font-family="Segoe UI, Calibri, Arial, sans-serif" font-size="10.5" fill="#6B5A2E">7. 23.08 — 4 figures, 399 tests</text><text x="16" y="712" font-family="Segoe UI, Calibri, Arial, sans-serif" font-size="12" font-weight="600" fill="#4A4A45">Commits per day</text><rect x="697" y="741" width="8" height="11" rx="1.5" fill="#8FA9C4"/><text x="701" y="737" text-anchor="middle" font-family="Segoe UI, Calibri, Arial, sans-serif" font-size="9" fill="#5A6B7C">5</text><rect x="711" y="750" width="8" height="2" rx="1.5" fill="#8FA9C4"/><text x="715" y="746" text-anchor="middle" font-family="Segoe UI, Calibri, Arial, sans-serif" font-size="9" fill="#5A6B7C">1</text><rect x="725" y="741" width="8" height="11" rx="1.5" fill="#8FA9C4"/><text x="729" y="737" text-anchor="middle" font-family="Segoe UI, Calibri, Arial, sans-serif" font-size="9" fill="#5A6B7C">5</text><rect x="738" y="720" width="8" height="32" rx="1.5" fill="#8FA9C4"/><text x="742" y="716" text-anchor="middle" font-family="Segoe UI, Calibri, Arial, sans-serif" font-size="9" fill="#5A6B7C">15</text><rect x="766" y="733" width="8" height="19" rx="1.5" fill="#8FA9C4"/><text x="770" y="729" text-anchor="middle" font-family="Segoe UI, Calibri, Arial, sans-serif" font-size="9" fill="#5A6B7C">9</text><rect x="807" y="746" width="8" height="6" rx="1.5" fill="#8FA9C4"/><text x="811" y="742" text-anchor="middle" font-family="Segoe UI, Calibri, Arial, sans-serif" font-size="9" fill="#5A6B7C">3</text><rect x="889" y="750" width="8" height="2" rx="1.5" fill="#8FA9C4"/><text x="893" y="746" text-anchor="middle" font-family="Segoe UI, Calibri, Arial, sans-serif" font-size="9" fill="#5A6B7C">1</text><rect x="1067" y="746" width="8" height="6" rx="1.5" fill="#8FA9C4"/><text x="1071" y="742" text-anchor="middle" font-family="Segoe UI, Calibri, Arial, sans-serif" font-size="9" fill="#5A6B7C">3</text><rect x="1095" y="726" width="8" height="26" rx="1.5" fill="#8FA9C4"/><text x="1099" y="722" text-anchor="middle" font-family="Segoe UI, Calibri, Arial, sans-serif" font-size="9" fill="#5A6B7C">12</text><rect x="1109" y="722" width="8" height="30" rx="1.5" fill="#8FA9C4"/><text x="1113" y="718" text-anchor="middle" font-family="Segoe UI, Calibri, Arial, sans-serif" font-size="9" fill="#5A6B7C">14</text><rect x="1122" y="748" width="8" height="4" rx="1.5" fill="#8FA9C4"/><text x="1126" y="744" text-anchor="middle" font-family="Segoe UI, Calibri, Arial, sans-serif" font-size="9" fill="#5A6B7C">2</text><path d="M468,752 H1236" stroke="#DFDFDA" stroke-width="1"/><text x="852" y="772" text-anchor="middle" font-family="Segoe UI, Calibri, Arial, sans-serif" font-size="10.5" font-style="italic" fill="#8A8A84">No commit and no artifact between 07.08 and 17.08.</text><rect x="16" y="786" width="26" height="12" rx="3" fill="#C9D9EC" stroke="#4C7DAB" stroke-width="1"/><text x="50" y="796" font-family="Segoe UI, Calibri, Arial, sans-serif" font-size="11" fill="#4A4A45">planned (proposal, 11.07.2026)</text><rect x="316" y="786" width="26" height="12" rx="3" fill="#2C5D8F" stroke="#1B3E60" stroke-width="1"/><text x="350" y="796" font-family="Segoe UI, Calibri, Arial, sans-serif" font-size="11" fill="#4A4A45">actual (commit history)</text><rect x="616" y="786" width="26" height="12" rx="3" fill="#7E68C4" stroke="#4A3A80" stroke-width="1"/><text x="650" y="796" font-family="Segoe UI, Calibri, Arial, sans-serif" font-size="11" fill="#4A4A45">not in the proposal</text></svg>